<svg width="20" height="20" viewBox="0 0 20 20" fill="none" xmlns="http://www.w3.org/2000/svg">
<path d="M14.9062 9.08057C16.0687 8.91723 16.9637 7.92056 16.9662 6.71306C16.9662 5.52306 16.0987 4.5364 14.9612 4.34973" stroke="#130F26" stroke-width="1.5" stroke-linecap="round" stroke-linejoin="round"/>
<path d="M16.4414 11.8752C17.5672 12.0436 18.3531 12.4377 18.3531 13.2502C18.3531 13.8094 17.9831 14.1727 17.3847 14.4011" stroke="#130F26" stroke-width="1.5" stroke-linecap="round" stroke-linejoin="round"/>
<path fill-rule="evenodd" clip-rule="evenodd" d="M9.90724 12.2198C7.22891 12.2198 4.94141 12.6256 4.94141 14.2465C4.94141 15.8665 7.21474 16.284 9.90724 16.284C12.5856 16.284 14.8722 15.8823 14.8722 14.2606C14.8722 12.639 12.5997 12.2198 9.90724 12.2198Z" stroke="#130F26" stroke-width="1.5" stroke-linecap="round" stroke-linejoin="round"/>
<path fill-rule="evenodd" clip-rule="evenodd" d="M9.90713 9.90657C11.6646 9.90657 13.0896 8.4824 13.0896 6.72407C13.0896 4.96657 11.6646 3.54156 9.90713 3.54156C8.14963 3.54156 6.72463 4.96657 6.72463 6.72407C6.71797 8.47573 8.13213 9.90073 9.8838 9.90657H9.90713Z" stroke="#130F26" stroke-width="1.5" stroke-linecap="round" stroke-linejoin="round"/>
<path d="M4.90375 9.08057C3.74042 8.91723 2.84625 7.92056 2.84375 6.71306C2.84375 5.52306 3.71125 4.5364 4.84875 4.34973" stroke="#130F26" stroke-width="1.5" stroke-linecap="round" stroke-linejoin="round"/>
<path d="M3.37065 11.8752C2.24482 12.0436 1.45898 12.4377 1.45898 13.2502C1.45898 13.8094 1.82898 14.1727 2.42732 14.4011" stroke="#130F26" stroke-width="1.5" stroke-linecap="round" stroke-linejoin="round"/>
</svg>
