<svg width="20" height="20" viewBox="0 0 20 20" fill="none" xmlns="http://www.w3.org/2000/svg">
<path fill-rule="evenodd" clip-rule="evenodd" d="M7.38459 0H5.4528C1.72991 0 0 2.17544 0 6.22847V13.7715C0 17.6361 2.36352 20 6.22905 20H13.7533C17.6114 20 19.9735 17.6347 19.9735 13.7715L20 8.97058C20 4.92273 18.3106 2.94127 14.5296 2.94127H11.7951C11.3298 2.94034 10.8906 2.72042 10.6098 2.34714L9.72808 1.17286C9.17526 0.434786 8.30684 0 7.38459 0ZM5.4528 1.45147H7.38459C7.85058 1.45147 8.28937 1.67116 8.56896 2.04444L9.45158 3.21988C10.0059 3.95693 10.8727 4.3909 11.7936 4.39273L14.5296 4.39274C17.4547 4.39274 18.5505 5.67793 18.5505 8.96658L18.524 13.7675C18.524 16.8331 16.8109 18.5485 13.7533 18.5485H6.22905C3.1637 18.5485 1.44955 16.8341 1.44955 13.7715V6.22847C1.44955 2.91372 2.61233 1.45147 5.4528 1.45147ZM15.3425 12.5438C15.3425 12.143 15.0181 11.8181 14.6178 11.8181H5.34695L5.24861 11.8247C4.89484 11.8727 4.62218 12.1764 4.62218 12.5438C4.62218 12.9446 4.94667 13.2695 5.34695 13.2695H14.6178L14.7161 13.2629C15.0699 13.2149 15.3425 12.9112 15.3425 12.5438Z" fill="#BDBDBD"/>
</svg>
