<svg width="20" height="20" viewBox="0 0 20 20" fill="none" xmlns="http://www.w3.org/2000/svg">
<path d="M9.37502 9.37503C11.5324 9.37503 13.2813 7.62614 13.2813 5.46877C13.2813 3.3114 11.5324 1.5625 9.37502 1.5625C7.21765 1.5625 5.46875 3.3114 5.46875 5.46877C5.46875 7.62614 7.21765 9.37503 9.37502 9.37503Z" stroke="#697077" stroke-width="1.5" stroke-linecap="round" stroke-linejoin="round"/>
<path d="M2.66406 17.1875C2.66406 14.1641 5.67189 11.7188 9.37503 11.7188C10.125 11.7188 10.8516 11.8203 11.5313 12.0078" stroke="#697077" stroke-width="1.5" stroke-linecap="round" stroke-linejoin="round"/>
<path d="M19.1153 15.1301C19.1153 15.4489 19.0754 15.7577 18.9957 16.0565C18.9061 16.4549 18.7467 16.8434 18.5375 17.1821C17.8502 18.3376 16.5852 19.1145 15.1309 19.1145C14.1049 19.1145 13.1785 18.726 12.4813 18.0885C12.1824 17.8295 11.9234 17.5208 11.7242 17.1821C11.3557 16.5844 11.1465 15.8772 11.1465 15.1301C11.1465 14.0544 11.5748 13.0682 12.2721 12.3511C12.9992 11.604 14.0152 11.1458 15.1309 11.1458C16.3063 11.1458 17.3721 11.6538 18.0893 12.4706C18.7268 13.1778 19.1153 14.1141 19.1153 15.1301Z" stroke="#697077" stroke-width="1.5" stroke-miterlimit="10" stroke-linecap="round" stroke-linejoin="round"/>
<path d="M16.459 15.1033H13.8027" stroke="#697077" stroke-miterlimit="10" stroke-linecap="round" stroke-linejoin="round"/>
<path d="M15.1309 13.802V16.4672" stroke="#697077" stroke-miterlimit="10" stroke-linecap="round" stroke-linejoin="round"/>
</svg>
