<svg width="160" height="27" viewBox="0 0 160 27" fill="none" xmlns="http://www.w3.org/2000/svg">
<g clip-path="url(#clip0_1_536)">
<g style="mix-blend-mode:difference">
<path d="M31.9862 0H91.63C91.9985 0.0492308 92.3039 0.392308 92.2639 0.771538C92.2562 1.04538 92.0415 1.23154 91.8638 1.41C85.3992 8.00923 78.9354 14.61 72.4692 21.2077C77.5769 21.2046 82.6846 21.21 87.7931 21.2054C89.3392 22.7615 90.8639 24.34 92.4039 25.9031C92.7462 26.2723 93.1339 26.6038 93.4446 27H59.5592C60.1885 26.3038 60.8685 25.6523 61.5192 24.9762C67.7938 18.57 74.07 12.1662 80.3431 5.75923C66.0331 5.75846 51.7231 5.75692 37.4138 5.76C37.4108 7.49 37.4069 9.22077 37.4154 10.9508C48.3338 10.9515 59.2523 10.9538 70.1708 10.9492C68.4515 12.7169 66.7223 14.4754 64.9954 16.2362C55.8015 16.2462 46.6069 16.2323 37.4131 16.2431C37.41 17.8969 37.4108 19.5508 37.4123 21.2046C44.9715 21.2092 52.53 21.2085 60.0892 21.2054C59.0177 22.2977 57.9492 23.3938 56.8762 24.4854C56.0662 25.3254 55.2254 26.1392 54.4385 27H31.9862C31.9862 18 31.9854 9 31.9862 0Z" fill="white"/>
<path d="M31.9862 0H91.63C91.9985 0.0492308 92.3039 0.392308 92.2639 0.771538C92.2562 1.04538 92.0415 1.23154 91.8638 1.41C85.3992 8.00923 78.9354 14.61 72.4692 21.2077C77.5769 21.2046 82.6846 21.21 87.7931 21.2054C89.3392 22.7615 90.8639 24.34 92.4039 25.9031C92.7462 26.2723 93.1339 26.6038 93.4446 27H59.5592C60.1885 26.3038 60.8685 25.6523 61.5192 24.9762C67.7938 18.57 74.07 12.1662 80.3431 5.75923C66.0331 5.75846 51.7231 5.75692 37.4138 5.76C37.4108 7.49 37.4069 9.22077 37.4154 10.9508C48.3338 10.9515 59.2523 10.9538 70.1708 10.9492C68.4515 12.7169 66.7223 14.4754 64.9954 16.2362C55.8015 16.2462 46.6069 16.2323 37.4131 16.2431C37.41 17.8969 37.4108 19.5508 37.4123 21.2046C44.9715 21.2092 52.53 21.2085 60.0892 21.2054C59.0177 22.2977 57.9492 23.3938 56.8762 24.4854C56.0662 25.3254 55.2254 26.1392 54.4385 27H31.9862C31.9862 18 31.9854 9 31.9862 0Z" stroke="white" stroke-width="0.00721154"/>
</g>
<g style="mix-blend-mode:difference">
<path d="M95.1931 0H128.602C128.607 9 128.606 18 128.602 27H95.1908C95.1908 18 95.1862 9 95.1931 0ZM100.618 5.76C100.618 10.9092 100.614 16.0577 100.62 21.2069C104.209 21.2077 107.799 21.2069 111.388 21.2069C115.318 21.1985 119.251 21.2246 123.177 21.1938C123.174 16.0492 123.178 10.9046 123.175 5.76C115.655 5.75769 108.137 5.75692 100.618 5.76Z" fill="white"/>
<path d="M95.1931 0H128.602C128.607 9 128.606 18 128.602 27H95.1908C95.1908 18 95.1862 9 95.1931 0ZM100.618 5.76C100.618 10.9092 100.614 16.0577 100.62 21.2069C104.209 21.2077 107.799 21.2069 111.388 21.2069C115.318 21.1985 119.251 21.2246 123.177 21.1938C123.174 16.0492 123.178 10.9046 123.175 5.76C115.655 5.75769 108.137 5.75692 100.618 5.76Z" stroke="white" stroke-width="0.00721154"/>
</g>
<g style="mix-blend-mode:difference">
<path d="M132.072 0H160C158.128 1.92385 156.245 3.83692 154.368 5.75462C148.86 5.76308 143.352 5.75692 137.845 5.75846C137.731 5.77385 137.598 5.72538 137.499 5.77923C137.498 7.50231 137.493 9.22692 137.501 10.95C141.428 10.9515 145.354 10.9538 149.28 10.9492C147.551 12.7115 145.827 14.4815 144.091 16.2385C141.895 16.2408 139.698 16.2377 137.502 16.24C137.49 19.8262 137.504 23.4131 137.495 27H132.071C132.071 18 132.07 9 132.072 0Z" fill="white"/>
<path d="M132.072 0H160C158.128 1.92385 156.245 3.83692 154.368 5.75462C148.86 5.76308 143.352 5.75692 137.845 5.75846C137.731 5.77385 137.598 5.72538 137.499 5.77923C137.498 7.50231 137.493 9.22692 137.501 10.95C141.428 10.9515 145.354 10.9538 149.28 10.9492C147.551 12.7115 145.827 14.4815 144.091 16.2385C141.895 16.2408 139.698 16.2377 137.502 16.24C137.49 19.8262 137.504 23.4131 137.495 27H132.071C132.071 18 132.07 9 132.072 0Z" stroke="white" stroke-width="0.00721154"/>
</g>
<g style="mix-blend-mode:difference">
<path d="M0 0.076921L0.0176923 0.00538254C1.82462 0.0130748 3.63154 0.00384408 5.43769 0.00922869C5.43615 7.07461 5.43385 14.1392 5.43923 21.2038C13.2992 21.2092 21.16 21.2092 29.0208 21.2038C27.1392 23.1392 25.2262 25.0462 23.3646 27H0V0.076921Z" fill="white"/>
<path d="M0 0.076921L0.0176923 0.00538254C1.82462 0.0130748 3.63154 0.00384408 5.43769 0.00922869C5.43615 7.07461 5.43385 14.1392 5.43923 21.2038C13.2992 21.2092 21.16 21.2092 29.0208 21.2038C27.1392 23.1392 25.2262 25.0462 23.3646 27H0V0.076921Z" stroke="white" stroke-width="0.00721154"/>
</g>
<path d="M110.532 19.1754C113.725 15.9777 116.926 12.7892 120.119 9.59231C120.133 12.7869 120.128 15.9831 120.122 19.1777C116.925 19.1708 113.728 19.1754 110.532 19.1754Z" fill="#FE0000" stroke="#FE0000" stroke-width="0.00721154"/>
</g>
<defs>
<clipPath id="clip0_1_536">
<rect width="160" height="27" fill="white"/>
</clipPath>
</defs>
</svg>
